<svg xmlns="http://www.w3.org/2000/svg" width="17.995" height="18" viewBox="0 0 17.995 18"><defs><style>.a{fill:#919191;}</style></defs><g transform="translate(-56 -56)"><path class="a" d="M65,74a9,9,0,0,1-6.246-15.48.722.722,0,0,1,1,1.04A7.553,7.553,0,1,0,65.72,57.48V60.3a.725.725,0,0,1-1.449,0V56.724A.724.724,0,0,1,65,56a9,9,0,0,1,0,18Z"/><path class="a" d="M160.745,160.109l4.478,3.217a1.355,1.355,0,1,1-1.575,2.205,1.309,1.309,0,0,1-.315-.315l-3.217-4.478a.451.451,0,0,1,.63-.63Z" transform="translate(-99.349 -99.343)"/></g></svg>