<svg xmlns="http://www.w3.org/2000/svg" width="15.076" height="13.999" viewBox="0 0 15.076 13.999"><defs><style>.a{fill:#ffa526;}</style></defs><path class="a" d="M46.5,52.846h-4.95l-1.5-4.489a.545.545,0,0,0-1.023,0l-1.5,4.489H32.538a.54.54,0,0,0-.538.538.4.4,0,0,0,.01.091.517.517,0,0,0,.225.38L36.3,56.723l-1.561,4.54a.54.54,0,0,0,.185.606.521.521,0,0,0,.3.131.66.66,0,0,0,.337-.121l3.971-2.83,3.971,2.83a.631.631,0,0,0,.337.121.483.483,0,0,0,.3-.131.533.533,0,0,0,.185-.606l-1.561-4.54L46.8,53.828l.1-.084a.515.515,0,0,0-.4-.9Zm-4.281,3.113a.945.945,0,0,0-.343,1.07l1.013,2.951a.135.135,0,0,1-.205.155l-2.6-1.858a.94.94,0,0,0-.549-.175.923.923,0,0,0-.545.175l-2.6,1.854a.135.135,0,0,1-.205-.155l1.013-2.951a.948.948,0,0,0-.347-1.077L34.12,54.027a.135.135,0,0,1,.077-.246h3.321a.941.941,0,0,0,.892-.643l1-2.968a.135.135,0,0,1,.256,0l1,2.968a.941.941,0,0,0,.892.643h3.274a.133.133,0,0,1,.077.242Z" transform="translate(-32 -48)"/></svg>