<svg xmlns="http://www.w3.org/2000/svg" width="17.567" height="16.216" viewBox="0 0 17.567 16.216"><defs><style>.a{fill:#919191;}</style></defs><path class="a" d="M63.878,65.351H62.189v1.013a.339.339,0,0,1-.338.338h-.676a.339.339,0,0,1-.338-.338V65.351H52.73v1.013a.339.339,0,0,1-.338.338h-.676a.339.339,0,0,1-.338-.338V65.351H49.689A1.694,1.694,0,0,0,48,67.04V78.527a1.694,1.694,0,0,0,1.689,1.689H63.878a1.694,1.694,0,0,0,1.689-1.689V67.04A1.694,1.694,0,0,0,63.878,65.351Zm.338,12.669a.847.847,0,0,1-.845.845H50.2a.847.847,0,0,1-.845-.845v-7.6a.339.339,0,0,1,.338-.338H63.878a.339.339,0,0,1,.338.338ZM52.73,64.338A.339.339,0,0,0,52.392,64h-.676a.339.339,0,0,0-.338.338v1.013H52.73Zm9.459,0A.339.339,0,0,0,61.851,64h-.676a.339.339,0,0,0-.338.338v1.013h1.351Z" transform="translate(-48 -64)"/></svg>