<svg id="Layer_1" data-name="Layer 1" xmlns="http://www.w3.org/2000/svg" viewBox="0 0 48.19 46.22"><path d="M23.88,26.7a25.42,25.42,0,0,1-11-2.35c-3.51-1.71-6.28-4.21-7.29-7.23-.21-.66-.08-1.34.73-1.51A1.35,1.35,0,0,1,8,16.48c1.9,5.72,10.17,7.75,15.88,7.75s14.33-2,16.23-7.75a1.19,1.19,0,0,1,1.52-.87c.81.17.95.85.73,1.51-1,3-4,5.52-7.48,7.23A25.47,25.47,0,0,1,23.88,26.7Z"/><path d="M24,34.78a1.35,1.35,0,0,1-1.4-1.29v-7.8a1.4,1.4,0,0,1,2.8,0v7.8A1.35,1.35,0,0,1,24,34.78Z"/><path d="M15.4,33.53a1.61,1.61,0,0,1-.48-.08,1.22,1.22,0,0,1-.83-1.61L17,24.72a1.45,1.45,0,0,1,1.8-.74,1.22,1.22,0,0,1,.83,1.61l-2.93,7.12A1.41,1.41,0,0,1,15.4,33.53Z"/><path d="M32.56,33.53a1.39,1.39,0,0,1-1.31-.82l-2.93-7.12A1.22,1.22,0,0,1,29.15,24a1.46,1.46,0,0,1,1.8.74l2.93,7.12a1.22,1.22,0,0,1-.83,1.61A1.67,1.67,0,0,1,32.56,33.53Z"/><path d="M7.4,29.91a1.61,1.61,0,0,1-1-.2.94.94,0,0,1-.16-1.55l5.48-5.43a1.7,1.7,0,0,1,2-.24A1,1,0,0,1,13.82,24L8.35,29.47A1.74,1.74,0,0,1,7.4,29.91Z"/><path d="M40.57,29.91a1.64,1.64,0,0,0,1-.2,1,1,0,0,0,.15-1.55l-5.47-5.43a1.7,1.7,0,0,0-2-.24A.94.94,0,0,0,34.14,24l5.48,5.43A1.71,1.71,0,0,0,40.57,29.91Z"/></svg>