<svg id="Layer_1" data-name="Layer 1" xmlns="http://www.w3.org/2000/svg" viewBox="0 0 47.44 45.5"><defs><style>.cls-1,.cls-2{fill-rule:evenodd;}.cls-2{fill:#fff;}</style></defs><path class="cls-1" d="M4.8,23c0,.18,17.59,24.87,37.2,0C22.39-1.9,4.8,22.78,4.8,23Z"/><path class="cls-2" d="M23.4,30.22a6.91,6.91,0,1,0-6.91-6.91,6.93,6.93,0,0,0,6.91,6.91Z"/><path class="cls-1" d="M23.4,26.41a3.21,3.21,0,1,0-3.21-3.2,3.21,3.21,0,0,0,3.21,3.2Z"/><path class="cls-2" d="M24.78,23.3a1.08,1.08,0,1,0-1.07-1.08,1.07,1.07,0,0,0,1.07,1.08Z"/></svg>