<svg id="Layer_1" data-name="Layer 1" xmlns="http://www.w3.org/2000/svg" viewBox="0 0 47.44 45.5"><defs><style>.cls-1,.cls-2{fill-rule:evenodd;}.cls-2{fill:#fff;}</style></defs><path d="M23.87,5a1.35,1.35,0,0,1,1.4,1.29v7.81a1.4,1.4,0,0,1-2.8,0V6.26A1.35,1.35,0,0,1,23.87,5Z"/><path d="M32.45,6.23a1.66,1.66,0,0,1,.49.07,1.23,1.23,0,0,1,.83,1.61L30.84,15a1.46,1.46,0,0,1-1.8.74,1.22,1.22,0,0,1-.83-1.61l2.93-7.12A1.39,1.39,0,0,1,32.45,6.23Z"/><path d="M15.29,6.23a1.41,1.41,0,0,1,1.32.82l2.93,7.12a1.22,1.22,0,0,1-.83,1.61,1.45,1.45,0,0,1-1.8-.74L14,7.91a1.22,1.22,0,0,1,.83-1.61A1.59,1.59,0,0,1,15.29,6.23Z"/><path d="M40.46,9.85a1.53,1.53,0,0,1,1,.19.94.94,0,0,1,.16,1.55L36.16,17a1.68,1.68,0,0,1-2,.25A.94.94,0,0,1,34,15.72l5.47-5.43A1.61,1.61,0,0,1,40.46,9.85Z"/><path d="M7.29,9.85a1.55,1.55,0,0,0-1,.19.94.94,0,0,0-.16,1.55L11.59,17a1.68,1.68,0,0,0,2,.25,1,1,0,0,0,.15-1.55L8.24,10.29A1.61,1.61,0,0,0,7.29,9.85Z"/><path class="cls-1" d="M5.16,27.9c0,.18,17.6,24.88,37.2,0-19.6-24.87-37.2-.19-37.2,0Z"/><path class="cls-2" d="M23.76,35.14a6.91,6.91,0,1,0-6.91-6.91,6.92,6.92,0,0,0,6.91,6.91Z"/><path class="cls-1" d="M23.76,31.34a3.21,3.21,0,1,0-3.2-3.21,3.21,3.21,0,0,0,3.2,3.21Z"/><path class="cls-2" d="M25.14,28.22a1.07,1.07,0,1,0-1.07-1.07,1.07,1.07,0,0,0,1.07,1.07Z"/></svg>