<svg version="1.1" xmlns="http://www.w3.org/2000/svg" xmlns:xlink="http://www.w3.org/1999/xlink"
  x="0px" y="0px" viewBox="0 0 1000 1000" enable-background="new 0 0 1000 1000" xml:space="preserve">
<metadata> Svg Vector Icons : http://www.onlinewebfonts.com/icon </metadata>
<g><path d="M908.3,808.8V759c24.3-12.6,40.9-33.2,40.9-65.1V212.9c0-61.4-29.6-111-102.1-111H255c-37.6,0-59.5,15.2-71.1,40.9h-56.2C139.6,92.3,180.3,61,237.9,61H876c68.7,0,114,66.6,114,135.1v495.2C990,745.4,956.2,791.6,908.3,808.8L908.3,808.8z"/><path d="M739.3,939H124c-68.7,0-114-66.6-114-135.1V286.1c0-68.5,53.8-102.6,122.5-102.6h632.9c68.6,0,102.1,54,102.1,122.5v510.4C867.5,884.9,808,939,739.3,939L739.3,939z M826.7,326.5c0-61.4-19.9-102.1-81.7-102.1H152.9c-61.8,0-102.1,20.3-102.1,81.7v490c0,61.4,40.3,102.1,102.1,102.1h571.7c61.8,0,102.1-40.7,102.1-102.1V326.5L826.7,326.5z"/><path d="M32.8,826.4c0,0,14.1-85,58.9-152.9c78.7-119.2,127-150.7,142.9-163.3c23.9-19.1,63.1-18.5,81.7,0c57.3,57.3,96.6,193.6,102.1,204.2c15.6,34,19.2,40.9,40.8,40.9c20.7,0,102.1-61.3,102.1-61.3s50.5-40.8,102.1-40.8c66.3,0,148.5,77.3,189.9,173.3l-47,71.7H91.7L32.8,826.4L32.8,826.4z"/><path d="M625.3,466.2c-37.8,0-68.5-30.2-68.5-67.3c0-37.1,30.7-67.3,68.5-67.3c37.7,0,68.5,30.2,68.5,67.3C693.7,435.9,663,466.2,625.3,466.2L625.3,466.2L625.3,466.2z"/></g>
</svg>