<svg xmlns="http://www.w3.org/2000/svg" xmlns:xlink="http://www.w3.org/1999/xlink" width="56.33" height="53.366" viewBox="0 0 56.33 53.366"><defs><style>.a{fill:#03676f;}.b{filter:url(#a);}</style><filter id="a" x="0" y="0" width="56.33" height="53.366" filterUnits="userSpaceOnUse"><feOffset dy="3" input="SourceAlpha"/><feGaussianBlur stdDeviation="3" result="b"/><feFlood flood-opacity="0.161"/><feComposite operator="in" in2="b"/><feComposite in="SourceGraphic"/></filter></defs><g class="b" transform="matrix(1, 0, 0, 1, 0, 0)"><path class="a" d="M67.156,64C56.574,64,48,70.926,48,79.472c0,5.977,4.2,11.162,10.342,13.741a12.036,12.036,0,0,1-3.085,5.572.365.365,0,0,0,.332.58,14.817,14.817,0,0,0,4.7-1.17,14.533,14.533,0,0,0,4.264-3.4,24.517,24.517,0,0,0,2.625.147c10.582,0,19.156-6.926,19.156-15.472C86.312,70.926,77.738,64,67.156,64Z" transform="translate(-39 -58)"/></g></svg>