<svg xmlns="http://www.w3.org/2000/svg" width="25.148" height="16.772" viewBox="0 0 25.148 16.772"><defs><style>.a{fill:#046A61;}</style></defs><path class="a" d="M128.037,160.345a1.141,1.141,0,0,0-.009,1.607l5.311,5.32H113.127a1.136,1.136,0,0,0,0,2.271h20.2l-5.311,5.32a1.15,1.15,0,0,0,.009,1.607,1.131,1.131,0,0,0,1.6-.009l7.2-7.25a1.275,1.275,0,0,0,.236-.358,1.083,1.083,0,0,0,.087-.437,1.138,1.138,0,0,0-.323-.795l-7.2-7.25A1.113,1.113,0,0,0,128.037,160.345Z" transform="translate(-112 -160.023)"/></svg>
