<svg id="Layer_1" data-name="Layer 1" xmlns="http://www.w3.org/2000/svg" viewBox="0 0 512 512"><defs><style>.cls-1{fill:#005792;}.cls-2{fill:#00bcd4;}.cls-3{fill:#fff;}</style></defs><path class="cls-1" d="M256,336a64.19,64.19,0,0,0,64-64V112a64,64,0,0,0-128,0V272A64.19,64.19,0,0,0,256,336Z"/><path class="cls-1" d="M352,192a14,14,0,0,0-14,14v69a82,82,0,0,1-164,0V206a14,14,0,0,0-28,0v69a110.14,110.14,0,0,0,96,109.1V436H206a14,14,0,0,0,0,28H306a14,14,0,0,0,0-28H270V384.1A110.14,110.14,0,0,0,366,275V206A14,14,0,0,0,352,192Z"/><rect class="cls-2" x="241.52" y="6.48" width="155.73" height="155.73" rx="77.87"/><path class="cls-3" d="M305.47,124H289.65a2,2,0,0,1-2-2V46.65a2,2,0,0,1,2-2h15.82a2,2,0,0,1,2,2v75.4A2,2,0,0,1,305.47,124Zm43.66,0H333.3a2,2,0,0,1-2-2V46.65a2,2,0,0,1,2-2h15.83a2,2,0,0,1,2,2v75.4A2,2,0,0,1,349.13,124Z"/></svg>