<svg xmlns="http://www.w3.org/2000/svg" width="18.699" height="12.945" viewBox="0 0 18.699 12.945"><defs><style>.a{fill:#109b8f;}</style></defs><g transform="translate(-48 -112)"><path class="a" d="M66.546,146.713l-4.837,4.926a.087.087,0,0,0,0,.126l3.385,3.6a.583.583,0,0,1,0,.827.586.586,0,0,1-.827,0L60.9,152.605a.092.092,0,0,0-.13,0l-.823.836a3.619,3.619,0,0,1-2.58,1.088,3.692,3.692,0,0,1-2.634-1.119l-.791-.8a.092.092,0,0,0-.13,0L50.436,156.2a.586.586,0,0,1-.827,0,.583.583,0,0,1,0-.827l3.385-3.6a.1.1,0,0,0,0-.126l-4.841-4.926a.089.089,0,0,0-.153.063v9.857a1.443,1.443,0,0,0,1.438,1.438H65.26a1.443,1.443,0,0,0,1.438-1.438v-9.857A.09.09,0,0,0,66.546,146.713Z" transform="translate(0 -33.126)"/><path class="a" d="M68.906,120.23a2.444,2.444,0,0,0,1.758-.737l7.052-7.178a1.413,1.413,0,0,0-.89-.315H60.99a1.4,1.4,0,0,0-.89.315l7.052,7.178A2.444,2.444,0,0,0,68.906,120.23Z" transform="translate(-11.556)"/></g></svg>