<svg xmlns="http://www.w3.org/2000/svg" width="23.481" height="12.999" viewBox="0 0 23.481 12.999"><defs><style>.a{fill:#109b8f;}</style></defs><g transform="translate(-32 -80.1)"><path class="a" d="M53.642,80.1H33.84A1.845,1.845,0,0,0,32,81.94v9.319a1.845,1.845,0,0,0,1.84,1.84h19.8a1.845,1.845,0,0,0,1.84-1.84V81.94A1.845,1.845,0,0,0,53.642,80.1ZM36.3,91.421H34.411a.734.734,0,0,1,0-1.468H36.3a.734.734,0,0,1,0,1.468Zm0-8.177H34.411a.734.734,0,1,1,0-1.468H36.3a.734.734,0,1,1,0,1.468Zm7.443,7.548A4.193,4.193,0,1,1,47.934,86.6,4.2,4.2,0,0,1,43.741,90.792Zm9.33.629H51.183a.734.734,0,1,1,0-1.468H53.07a.734.734,0,0,1,0,1.468Zm0-8.177H51.183a.734.734,0,1,1,0-1.468H53.07a.734.734,0,1,1,0,1.468Z"/><circle class="a" cx="2.778" cy="2.778" r="2.778" transform="translate(40.963 83.921)"/></g></svg>