<svg id="Layer_1" data-name="Layer 1" xmlns="http://www.w3.org/2000/svg" viewBox="0 0 512 512"><defs><style>.cls-1{fill:#231f20;}</style></defs><path id="immersio-01" class="cls-1" d="M428.75,47.72H77.87A32.72,32.72,0,0,0,45.15,80.43h0V431.3A32.72,32.72,0,0,0,77.87,464H428.75a32.72,32.72,0,0,0,32.72-32.72V80.4A32.71,32.71,0,0,0,428.75,47.72Zm-186.64,68a22.89,22.89,0,1,1-3.7,27.67A22.87,22.87,0,0,1,242.11,115.71Zm35.13,264.13h-68l.83-.72,29.4-32.79v-96.1L205.37,184h71.57V322.12l29.82,57.75Z"/></svg>