<svg id="Layer_1" data-name="Layer 1" xmlns="http://www.w3.org/2000/svg" viewBox="0 0 413.41 413.41"><g id="Group_3770" data-name="Group 3770"><path id="Subtraction_1" data-name="Subtraction 1" d="M430.55,381.43H285.08a11.55,11.55,0,0,1-11.55-11.55v-1a11.55,11.55,0,0,1,11.55-11.55H425.73a11.55,11.55,0,0,0,11.54-11.55V241.93a11.55,11.55,0,0,0-11.54-11.55H373.2a11.55,11.55,0,0,0-8.09,19.79l21.11,20.73a10.8,10.8,0,0,1,.2,15.28,3.7,3.7,0,0,1-.28.28,11.69,11.69,0,0,1-16.08-.09l-60.33-59.12a10.63,10.63,0,0,1-2.34-3.47,10.07,10.07,0,0,1-.87-4.22,10.89,10.89,0,0,1,3.23-7.69l60.31-59.21a11.5,11.5,0,0,1,16-.25,10.72,10.72,0,0,1,.5,15.15l-.41.41L365,188.69a11.54,11.54,0,0,0,8.08,19.78h52.61a11.54,11.54,0,0,0,11.54-11.54V90.5A11.54,11.54,0,0,0,425.73,79H260.52A11.54,11.54,0,0,0,249,90.5v56.82a11.55,11.55,0,0,1-11.55,11.54h0a11.54,11.54,0,0,1-11.54-11.54V88.17A31.57,31.57,0,0,1,257.46,56.6H430.55a31.57,31.57,0,0,1,31.57,31.57V349.86A31.57,31.57,0,0,1,430.55,381.43Z" transform="translate(-48.71 -56.6)"/><path id="Union_1" data-name="Union 1" d="M81.33,470A32.62,32.62,0,0,1,48.71,437.4V177.81a32.62,32.62,0,0,1,32.62-32.62h171a32.62,32.62,0,0,1,32.62,32.62V437.4A32.62,32.62,0,0,1,252.32,470Zm8.27-22.36H245.82a16,16,0,0,0,16-16V185.29a16,16,0,0,0-16-16H89.6a16,16,0,0,0-16,16v94.92a16,16,0,0,0,16,16h37.12c14.34,0,21.47-17.39,11.24-27.45l-13.35-13.13a10.82,10.82,0,0,1-.19-15.29l.28-.28a11.7,11.7,0,0,1,16.08.09l60.31,59.21a10.5,10.5,0,0,1,2.35,3.47,10.07,10.07,0,0,1,.87,4.22,10.85,10.85,0,0,1-3.23,7.69L140.78,374a11.5,11.5,0,0,1-16,.25,10.72,10.72,0,0,1-.49-15.15c.13-.14.26-.28.4-.41l13.28-13c10.24-10.05,3.13-27.46-11.23-27.46H89.6a16,16,0,0,0-16,16v97.46A16,16,0,0,0,89.6,447.66Z" transform="translate(-48.71 -56.6)"/></g></svg>